# xmcd
#
# Track frame offsets:
#	182
#	12032
#	25882
#	36915
#	54455
#	66495
#	83187
#	94420
#	105550
#	117535
#
# Disc length: 1729
#
# Revision: 1
# Processed by: cddbd v1.5.1PL0 Copyright (c) Steve Scherf et al.
# Submitted via: ExactAudioCopy v0.90b3
# Normalized: r0:DSETVAR1
#
DISCID=8306bf0a
DTITLE=Various Artist - Country Shots-Heartbreak-Ups
DYEAR=1900
DGENRE=Oldies
TTITLE0=Hank Williams - My Son Calls Another Man Daddy
TTITLE1=Patsy Cline - A Church, A Courtroom, Then Goodbye
TTITLE2=Moe Bandy - So Much for You, So Much for Me
TTITLE3=Barbara Mandrell - Child Support
TTITLE4=Hank Snow - Married by the Bible , Divorced by the Law
TTITLE5=Shelby Lynne - What About the Love We Made
TTITLE6=Kitty Wells - Will Your Lawyer Talk to God
TTITLE7=Hank Williams Jr. - Custody
TTITLE8=Lacy J. Dalton - Hillbilly Girl with the Blues
TTITLE9=Ernest Tubb and Loretta Lynn - Mr. and Mrs. Used to Be
EXTD=
EXTT0=
EXTT1=
EXTT2=
EXTT3=
EXTT4=
EXTT5=
EXTT6=
EXTT7=
EXTT8=
EXTT9=
PLAYORDER=
